<svg xmlns="http://www.w3.org/2000/svg" xmlns:xlink="http://www.w3.org/1999/xlink" x="0px" y="0px" viewBox="0 0 27 34" style="enable-background:new 0 0 27 34;" xml:space="preserve"><path d="M13.5,5.1c0.2,0,0.4,0.1,0.6,0.2c0.2,0.2,0.2,0.4,0.2,0.6v3.2c0,0.2-0.1,0.4-0.2,0.6c-0.1,0.2-0.4,0.2-0.6,0.2s-0.4-0.1-0.6-0.2c-0.2-0.2-0.2-0.4-0.2-0.6V5.9c0-0.2,0.1-0.4,0.2-0.6C13.1,5.2,13.3,5.1,13.5,5.1z M19.9,18.1c0,1.7-0.7,3.4-1.9,4.6c-1.2,1.2-2.8,1.9-4.5,1.9s-3.3-0.7-4.5-1.9c-1.2-1.2-1.9-2.9-1.9-4.6V8.4C7.1,6.6,7.8,5,9,3.8c1.2-1.2,2.8-1.9,4.5-1.9s3.3,0.7,4.5,1.9c1.2,1.2,1.9,2.9,1.9,4.6V18.1z M13.5,0.2c-2.1,0-4.2,0.9-5.7,2.4C6.3,4.1,5.5,6.2,5.5,8.4v9.8c0,2.2,0.8,4.2,2.3,5.7c1.5,1.5,3.5,2.4,5.7,2.4s4.2-0.9,5.7-2.4c1.5-1.5,2.3-3.6,2.3-5.7V8.4c0-2.2-0.8-4.2-2.3-5.7C17.7,1.1,15.6,0.2,13.5,0.2z M14.4,33.4l4.6-4.6c0.3-0.3,0.3-0.8,0-1.1s-0.8-0.3-1.1,0l-4.5,4.5L9,27.7c-0.3-0.3-0.8-0.3-1.1,0s-0.3,0.8,0,1.1l4.6,4.6c0.2,0.2,0.6,0.4,0.9,0.4S14.1,33.6,14.4,33.4z"/></svg>